ZephyrSans_Thin.ufo
<glyph name="exclam" format="2">
  <advance width="266" />
  <unicode hex="0021" />
  <outline>
    <contour>
      <point x="120" y="740" type="line" />
      <point x="147" y="740" type="line" />
      <point x="145" y="174" type="line" />
      <point x="121" y="174" type="line" />
    </contour>
    <contour>
      <point x="133" y="36" type="curve" smooth="yes" />
      <point x="122" y="36" />
      <point x="111" y="29" />
      <point x="111" y="12" type="curve" />
      <point x="111" y="-5" />
      <point x="122" y="-12" />
      <point x="133" y="-12" type="curve" smooth="yes" />
      <point x="144" y="-12" />
      <point x="155" y="-5" />
      <point x="155" y="12" type="curve" smooth="yes" />
      <point x="155" y="29" />
      <point x="144" y="36" />
    </contour>
  </outline>
</glyph>
<glyph name="numbersign" format="2">
  <advance width="768" />
  <unicode hex="0023" />
  <outline>
    <contour>
      <point x="306" y="710" type="line" />
      <point x="192" y="-12" type="line" />
      <point x="219" y="-12" type="line" />
      <point x="333" y="710" type="line" />
    </contour>
    <contour>
      <point x="549" y="710" type="line" />
      <point x="435" y="-12" type="line" />
      <point x="462" y="-12" type="line" />
      <point x="576" y="710" type="line" />
    </contour>
    <contour>
      <point x="119" y="526" type="line" />
      <point x="115" y="502" type="line" />
      <point x="696" y="502" type="line" />
      <point x="700" y="526" type="line" />
    </contour>
    <contour>
      <point x="72" y="196" type="line" />
      <point x="68" y="172" type="line" />
      <point x="649" y="172" type="line" />
      <point x="653" y="196" type="line" />
    </contour>
  </outline>
</glyph>
<glyph name="quotesingle" format="2">
  <advance width="167"/>
  <unicode hex="0027"/>
  <outline>
    <contour>
      <point x="70" y="775" type="line"/>
      <point x="97" y="775" type="line"/>
      <point x="95" y="550" type="line"/>
      <point x="71" y="550" type="line"/>
    </contour>
  </outline>
</glyph>
<glyph name="parenleft" format="2">
  <advance width="339" />
  <unicode hex="0028" />
  <guideline x="565" y="311" angle="120" name="-30deg" />
  <outline>
    <contour>
      <point x="92" y="311" type="curve" smooth="yes" />
      <point x="92" y="636" />
      <point x="299" y="772" />
      <point x="299" y="772" type="curve" />
      <point x="287" y="793" type="line" />
      <point x="287" y="793" />
      <point x="65" y="655" />
      <point x="65" y="311" type="curve" smooth="yes" />
      <point x="65" y="-33" />
      <point x="287" y="-171" />
      <point x="287" y="-171" type="curve" />
      <point x="299" y="-150" type="line" />
      <point x="299" y="-150" />
      <point x="92" y="-14" />
    </contour>
  </outline>
</glyph>
<glyph name="hyphen" format="2">
  <advance width="300" />
  <unicode hex="002D" />
  <outline>
    <contour>
      <point x="40" y="300" type="line" />
      <point x="260" y="300" type="line" />
      <point x="260" y="276" type="line" />
      <point x="40" y="276" type="line" />
    </contour>
  </outline>
</glyph>
<glyph name="period" format="2">
  <advance width="194" />
  <unicode hex="002E" />
  <outline>
    <contour>
      <point x="119" y="12" type="curve" smooth="yes" />
      <point x="119" y="29" />
      <point x="108" y="36" />
      <point x="97" y="36" type="curve" smooth="yes" />
      <point x="86" y="36" />
      <point x="75" y="29" />
      <point x="75" y="12" type="curve" />
      <point x="75" y="-5" />
      <point x="86" y="-12" />
      <point x="97" y="-12" type="curve" smooth="yes" />
      <point x="108" y="-12" />
      <point x="119" y="-5" />
    </contour>
  </outline>
</glyph>
<glyph name="at" format="2">
  <advance width="1160" />
  <unicode hex="0040" />
  <outline>
    <contour>
      <point x="1080" y="256" type="curve" smooth="yes" />
      <point x="1080" y="557" />
      <point x="867" y="758" />
      <point x="588" y="758" type="curve" smooth="yes" />
      <point x="313" y="758" />
      <point x="95" y="547" />
      <point x="95" y="246" type="curve" smooth="yes" />
      <point x="95" y="-43" />
      <point x="334" y="-228" />
      <point x="580" y="-228" type="curve" smooth="yes" />
      <point x="752" y="-228" />
      <point x="831" y="-164" />
      <point x="831" y="-164" type="curve" />
      <point x="817" y="-142" type="line" />
      <point x="817" y="-142" />
      <point x="751" y="-204" />
      <point x="578" y="-204" type="curve" smooth="yes" />
      <point x="352" y="-204" />
      <point x="122" y="-30" />
      <point x="122" y="246" type="curve" smooth="yes" />
      <point x="122" y="532" />
      <point x="325" y="734" />
      <point x="588" y="734" type="curve" smooth="yes" />
      <point x="855" y="734" />
      <point x="1053" y="540" />
      <point x="1053" y="256" type="curve" smooth="yes" />
      <point x="1053" y="80" />
      <point x="992" y="12" />
      <point x="917" y="12" type="curve" smooth="yes" />
      <point x="842" y="12" />
      <point x="800" y="63" />
      <point x="800" y="200" type="curve" smooth="yes" />
      <point x="800" y="357" type="line" smooth="yes" />
      <point x="800" y="485" />
      <point x="726" y="562" />
      <point x="588" y="562" type="curve" smooth="yes" />
      <point x="445" y="562" />
      <point x="384" y="459" />
      <point x="384" y="459" type="curve" />
      <point x="406" y="443" type="line" />
      <point x="406" y="443" />
      <point x="455" y="538" />
      <point x="589" y="538" type="curve" smooth="yes" />
      <point x="718" y="538" />
      <point x="773" y="468" />
      <point x="773" y="360" type="curve" smooth="yes" />
      <point x="773" y="200" type="line" smooth="yes" />
      <point x="773" y="43" />
      <point x="837" y="-12" />
      <point x="917" y="-12" type="curve" smooth="yes" />
      <point x="997" y="-12" />
      <point x="1080" y="66" />
    </contour>
    <contour>
      <point x="545" y="12" type="curve" smooth="yes" />
      <point x="469" y="12" />
      <point x="387" y="45" />
      <point x="387" y="138" type="curve" smooth="yes" />
      <point x="387" y="267" />
      <point x="550" y="304" />
      <point x="776" y="304" type="curve" />
      <point x="776" y="328" type="line" />
      <point x="543" y="328" />
      <point x="360" y="292" />
      <point x="360" y="131" type="curve" smooth="yes" />
      <point x="360" y="42" />
      <point x="445" y="-12" />
      <point x="541" y="-12" type="curve" smooth="yes" />
      <point x="735" y="-12" />
      <point x="785" y="175" />
      <point x="785" y="275" type="curve" />
      <point x="773" y="287" type="line" />
      <point x="773" y="144" />
      <point x="693" y="12" />
    </contour>
  </outline>
</glyph>
<glyph name="bracketleft" format="2">
  <advance width="303" />
  <unicode hex="005B" />
  <outline>
    <contour>
      <point x="67" y="-137" type="line" />
      <point x="67" y="751" type="line" />
      <point x="210" y="751" type="line" />
      <point x="210" y="775" type="line" />
      <point x="40" y="775" type="line" />
      <point x="40" y="-161" type="line" />
      <point x="210" y="-161" type="line" />
      <point x="210" y="-137" type="line" />
    </contour>
  </outline>
</glyph>
<glyph name="a" format="2">
  <advance width="585" />
  <unicode hex="0061" />
  <guideline x="5" y="521" angle="145" identifier="fontra-guideline-0" />
  <anchor x="298" y="658" name="top" />
  <outline>
    <contour>
      <point x="298" y="562" type="curve" smooth="yes" />
      <point x="436" y="562" />
      <point x="510" y="485" />
      <point x="510" y="357" type="curve" smooth="yes" />
      <point x="510" y="0" type="line" />
      <point x="486" y="0" type="line" />
      <point x="483" y="200" type="line" />
      <point x="483" y="360" type="line" />
      <point x="483" y="468" />
      <point x="428" y="538" />
      <point x="299" y="538" type="curve" smooth="yes" />
      <point x="165" y="538" />
      <point x="115" y="444" />
      <point x="115" y="444" type="curve" />
      <point x="94" y="459" type="line" />
      <point x="94" y="459" />
      <point x="155" y="562" />
    </contour>
    <contour>
      <point x="255" y="12" type="curve" smooth="yes" />
      <point x="403" y="12" />
      <point x="483" y="144" />
      <point x="483" y="287" type="curve" />
      <point x="495" y="275" type="line" />
      <point x="495" y="175" />
      <point x="445" y="-12" />
      <point x="251" y="-12" type="curve" smooth="yes" />
      <point x="155" y="-12" />
      <point x="70" y="42" />
      <point x="70" y="131" type="curve" smooth="yes" />
      <point x="70" y="292" />
      <point x="253" y="328" />
      <point x="486" y="328" type="curve" />
      <point x="486" y="304" type="line" />
      <point x="260" y="304" />
      <point x="97" y="267" />
      <point x="97" y="138" type="curve" smooth="yes" />
      <point x="97" y="45" />
      <point x="179" y="12" />
    </contour>
  </outline>
</glyph>
<glyph name="b" format="2">
  <advance width="594" />
  <unicode hex="0062" />
  <outline>
    <contour>
      <point x="75" y="775" type="line" />
      <point x="75" y="0" type="line" />
      <point x="100" y="0" type="line" />
      <point x="103" y="200" type="line" />
      <point x="88" y="277" type="line" />
      <point x="102" y="395" type="line" />
      <point x="102" y="775" type="line" />
    </contour>
    <contour>
      <point x="307" y="562" type="curve" smooth="yes" />
      <point x="209" y="562" />
      <point x="83" y="485" />
      <point x="83" y="277" type="curve" smooth="yes" />
      <point x="83" y="65" />
      <point x="209" y="-12" />
      <point x="307" y="-12" type="curve" smooth="yes" />
      <point x="397" y="-12" />
      <point x="539" y="53" />
      <point x="539" y="277" type="curve" smooth="yes" />
      <point x="539" y="495" />
      <point x="397" y="562" />
    </contour>
    <contour>
      <point x="307" y="538" type="curve" smooth="yes" />
      <point x="406" y="538" />
      <point x="515" y="452" />
      <point x="515" y="277" type="curve" smooth="yes" />
      <point x="515" y="94" />
      <point x="406" y="12" />
      <point x="307" y="12" type="curve" smooth="yes" />
      <point x="185" y="12" />
      <point x="97" y="115" />
      <point x="97" y="277" type="curve" smooth="yes" />
      <point x="97" y="439" />
      <point x="183" y="538" />
    </contour>
  </outline>
</glyph>
<glyph name="c" format="2">
  <advance width="555"/>
  <unicode hex="0063"/>
  <guideline x="197" y="275" angle="30"/>
  <guideline x="197" y="275" angle="150"/>
  <guideline x="197" y="419" angle="0"/>
  <guideline x="197" y="131" angle="0"/>
  <outline>
    <contour>
      <point x="77" y="275" type="curve" smooth="yes"/>
      <point x="77" y="85"/>
      <point x="190" y="12"/>
      <point x="310" y="12" type="curve" smooth="yes"/>
      <point x="445" y="12"/>
      <point x="490" y="106"/>
      <point x="490" y="106" type="curve"/>
      <point x="510" y="94" type="line"/>
      <point x="510" y="94"/>
      <point x="455" y="-12"/>
      <point x="310" y="-12" type="curve" smooth="yes"/>
      <point x="180" y="-12"/>
      <point x="50" y="67"/>
      <point x="50" y="275" type="curve" smooth="yes"/>
      <point x="50" y="483"/>
      <point x="180" y="562"/>
      <point x="310" y="562" type="curve" smooth="yes"/>
      <point x="455" y="562"/>
      <point x="510" y="456"/>
      <point x="510" y="456" type="curve"/>
      <point x="490" y="444" type="line"/>
      <point x="490" y="444"/>
      <point x="445" y="538"/>
      <point x="310" y="538" type="curve" smooth="yes"/>
      <point x="190" y="538"/>
      <point x="77" y="465"/>
    </contour>
  </outline>
</glyph>
<glyph name="d" format="2">
  <advance width="594" />
  <unicode hex="0064" />
  <outline>
    <contour>
      <point x="492" y="775" type="line" />
      <point x="492" y="395" type="line" />
      <point x="506" y="277" type="line" />
      <point x="491" y="200" type="line" />
      <point x="494" y="0" type="line" />
      <point x="519" y="0" type="line" />
      <point x="519" y="775" type="line" />
    </contour>
    <contour>
      <point x="287" y="562" type="curve" smooth="yes" />
      <point x="197" y="562" />
      <point x="55" y="495" />
      <point x="55" y="277" type="curve" smooth="yes" />
      <point x="55" y="53" />
      <point x="197" y="-12" />
      <point x="287" y="-12" type="curve" smooth="yes" />
      <point x="385" y="-12" />
      <point x="511" y="65" />
      <point x="511" y="277" type="curve" smooth="yes" />
      <point x="511" y="485" />
      <point x="385" y="562" />
    </contour>
    <contour>
      <point x="287" y="538" type="curve" smooth="yes" />
      <point x="411" y="538" />
      <point x="497" y="439" />
      <point x="497" y="277" type="curve" smooth="yes" />
      <point x="497" y="115" />
      <point x="409" y="12" />
      <point x="287" y="12" type="curve" smooth="yes" />
      <point x="188" y="12" />
      <point x="79" y="94" />
      <point x="79" y="277" type="curve" smooth="yes" />
      <point x="79" y="452" />
      <point x="188" y="538" />
    </contour>
  </outline>
</glyph>
<glyph name="e" format="2">
  <advance width="563"/>
  <unicode hex="0065"/>
  <guideline x="197" y="275" angle="150"/>
  <guideline x="197" y="275" angle="30"/>
  <guideline x="197" y="131" angle="0"/>
  <outline>
    <contour>
      <point x="491" y="347" type="line"/>
      <point x="491" y="449"/>
      <point x="416" y="538"/>
      <point x="295" y="538" type="curve" smooth="yes"/>
      <point x="175" y="538"/>
      <point x="77" y="454"/>
      <point x="77" y="270" type="curve"/>
      <point x="77" y="259" type="line"/>
      <point x="77" y="79"/>
      <point x="182" y="12"/>
      <point x="303" y="12" type="curve" smooth="yes"/>
      <point x="445" y="12"/>
      <point x="490" y="106"/>
      <point x="490" y="106" type="curve"/>
      <point x="510" y="94" type="line"/>
      <point x="510" y="94"/>
      <point x="465" y="-12"/>
      <point x="300" y="-12" type="curve" smooth="yes"/>
      <point x="180" y="-12"/>
      <point x="50" y="57"/>
      <point x="50" y="270" type="curve"/>
      <point x="50" y="483"/>
      <point x="176" y="562"/>
      <point x="295" y="562" type="curve"/>
      <point x="427" y="562"/>
      <point x="518" y="460"/>
      <point x="518" y="334" type="curve" smooth="yes"/>
      <point x="518" y="307"/>
      <point x="516" y="294"/>
      <point x="516" y="293" type="curve"/>
      <point x="67" y="293" type="line"/>
      <point x="67" y="317" type="line"/>
      <point x="501" y="317" type="line"/>
      <point x="491" y="307" type="line"/>
    </contour>
  </outline>
</glyph>
<glyph name="f" format="2">
  <advance width="432" />
  <unicode hex="0066" />
  <guideline x="236" y="-225" angle="80" />
  <outline>
    <contour>
      <point x="55" y="550" type="line" />
      <point x="383" y="550" type="line" />
      <point x="383" y="526" type="line" />
      <point x="55" y="526" type="line" />
    </contour>
    <contour>
      <point x="183" y="0" type="line" />
      <point x="156" y="0" type="line" />
      <point x="156" y="628" type="line" />
      <point x="156" y="730" />
      <point x="216" y="793" />
      <point x="328" y="793" type="curve" smooth="yes" />
      <point x="382" y="793" />
      <point x="412" y="774" />
      <point x="412" y="774" type="curve" />
      <point x="408" y="750" type="line" />
      <point x="407" y="751" />
      <point x="378" y="769" />
      <point x="330" y="769" type="curve" smooth="yes" />
      <point x="225" y="769" />
      <point x="183" y="715" />
      <point x="183" y="625" type="curve" />
    </contour>
  </outline>
</glyph>
<glyph name="g" format="2">
  <advance width="627"/>
  <unicode hex="0067"/>
  <guideline x="608" y="275" angle="95" name="5deg"/>
  <guideline x="608" y="275" angle="85" name="-5deg"/>
  <guideline x="197" y="131" angle="0"/>
  <guideline x="197" y="46" angle="177" name="-3deg"/>
  <outline>
    <contour>
      <point x="87" y="-101" type="curve" smooth="yes"/>
      <point x="87" y="-149"/>
      <point x="126" y="-207"/>
      <point x="327" y="-207" type="curve" smooth="yes"/>
      <point x="502" y="-207"/>
      <point x="565" y="-157"/>
      <point x="565" y="-92" type="curve" smooth="yes"/>
      <point x="565" y="-13"/>
      <point x="460" y="-2"/>
      <point x="328" y="1" type="curve" smooth="yes"/>
      <point x="200" y="3"/>
      <point x="87" y="-13"/>
    </contour>
    <contour>
      <point x="529" y="376" type="curve" smooth="yes"/>
      <point x="529" y="275"/>
      <point x="447" y="197"/>
      <point x="317" y="197" type="curve" smooth="yes"/>
      <point x="187" y="197"/>
      <point x="101" y="275"/>
      <point x="101" y="376" type="curve" smooth="yes"/>
      <point x="101" y="504"/>
      <point x="205" y="562"/>
      <point x="317" y="562" type="curve" smooth="yes"/>
      <point x="425" y="562"/>
      <point x="529" y="504"/>
    </contour>
    <contour>
      <point x="128" y="378" type="curve" smooth="yes"/>
      <point x="128" y="283"/>
      <point x="200" y="221"/>
      <point x="317" y="221" type="curve" smooth="yes"/>
      <point x="434" y="221"/>
      <point x="502" y="283"/>
      <point x="502" y="378" type="curve" smooth="yes"/>
      <point x="502" y="486"/>
      <point x="414" y="538"/>
      <point x="317" y="538" type="curve" smooth="yes"/>
      <point x="220" y="538"/>
      <point x="128" y="488"/>
    </contour>
    <contour>
      <point x="339" y="12" type="line"/>
      <point x="329" y="12"/>
      <point x="101" y="-10"/>
      <point x="101" y="113" type="curve" smooth="yes"/>
      <point x="101" y="170"/>
      <point x="155" y="234"/>
      <point x="323" y="212" type="curve"/>
      <point x="327" y="199" type="line"/>
      <point x="242" y="209"/>
      <point x="125" y="199"/>
      <point x="125" y="114" type="curve" smooth="yes"/>
      <point x="125" y="27"/>
      <point x="266" y="31"/>
      <point x="354" y="27" type="curve" smooth="yes"/>
      <point x="451" y="23"/>
      <point x="592" y="14"/>
      <point x="592" y="-95" type="curve" smooth="yes"/>
      <point x="592" y="-188"/>
      <point x="476" y="-231"/>
      <point x="327" y="-231" type="curve" smooth="yes"/>
      <point x="160" y="-231"/>
      <point x="60" y="-187"/>
      <point x="60" y="-103" type="curve" smooth="yes"/>
      <point x="60" y="-12"/>
      <point x="167" y="23"/>
      <point x="335" y="16" type="curve"/>
    </contour>
    <contour>
      <point x="439" y="520" type="line"/>
      <point x="439" y="520"/>
      <point x="486" y="589"/>
      <point x="581" y="589" type="curve"/>
      <point x="583" y="565" type="line"/>
      <point x="575" y="565" type="line"/>
      <point x="490" y="565"/>
      <point x="451" y="508"/>
      <point x="451" y="508" type="curve"/>
    </contour>
    <contour>
      <point x="101" y="264" type="move"/>
    </contour>
  </outline>
</glyph>
<glyph name="h" format="2">
  <advance width="604"/>
  <unicode hex="0068"/>
  <outline>
    <contour>
      <point x="75" y="775" type="line"/>
      <point x="75" y="0" type="line"/>
      <point x="102" y="0" type="line"/>
      <point x="102" y="775" type="line"/>
    </contour>
    <contour>
      <point x="340" y="562" type="curve" smooth="yes"/>
      <point x="136" y="562"/>
      <point x="94" y="351"/>
      <point x="94" y="331" type="curve"/>
      <point x="102" y="273" type="line"/>
      <point x="102" y="376"/>
      <point x="168" y="538"/>
      <point x="338" y="538" type="curve" smooth="yes"/>
      <point x="459" y="538"/>
      <point x="513" y="472"/>
      <point x="513" y="359" type="curve" smooth="yes"/>
      <point x="513" y="0" type="line"/>
      <point x="539" y="0" type="line"/>
      <point x="539" y="360" type="line" smooth="yes"/>
      <point x="539" y="491"/>
      <point x="466" y="562"/>
    </contour>
  </outline>
</glyph>
<glyph name="i" format="2">
  <advance width="225"/>
  <unicode hex="0069"/>
  <outline>
    <contour>
      <point x="103" y="550" type="line"/>
      <point x="103" y="1" type="line"/>
      <point x="127" y="1" type="line"/>
      <point x="127" y="550" type="line"/>
    </contour>
    <contour>
      <point x="137" y="730" type="curve" smooth="yes"/>
      <point x="137" y="747"/>
      <point x="126" y="754"/>
      <point x="115" y="754" type="curve" smooth="yes"/>
      <point x="104" y="754"/>
      <point x="93" y="747"/>
      <point x="93" y="730" type="curve"/>
      <point x="93" y="713"/>
      <point x="104" y="706"/>
      <point x="115" y="706" type="curve" smooth="yes"/>
      <point x="126" y="706"/>
      <point x="137" y="713"/>
    </contour>
  </outline>
</glyph>
<glyph name="j" format="2">
  <advance width="187" />
  <unicode hex="006A" />
  <guideline x="60" y="775" angle="85" />
  <outline>
    <contour>
      <point x="117" y="730" type="curve" smooth="yes" />
      <point x="117" y="747" />
      <point x="106" y="754" />
      <point x="95" y="754" type="curve" smooth="yes" />
      <point x="84" y="754" />
      <point x="73" y="747" />
      <point x="73" y="730" type="curve" />
      <point x="73" y="713" />
      <point x="84" y="706" />
      <point x="95" y="706" type="curve" smooth="yes" />
      <point x="106" y="706" />
      <point x="117" y="713" />
    </contour>
    <contour>
      <point x="-22" y="-221" type="line" />
      <point x="-22" y="-221" />
      <point x="-6" y="-231" />
      <point x="31" y="-231" type="curve" smooth="yes" />
      <point x="85" y="-231" />
      <point x="107" y="-197" />
      <point x="107" y="-157" type="curve" smooth="yes" />
      <point x="107" y="550" type="line" />
      <point x="80" y="550" type="line" />
      <point x="80" y="-155" type="line" smooth="yes" />
      <point x="80" y="-186" />
      <point x="68" y="-207" />
      <point x="29" y="-207" type="curve" smooth="yes" />
      <point x="-6" y="-207" />
      <point x="-20" y="-197" />
      <point x="-20" y="-197" type="curve" />
    </contour>
  </outline>
</glyph>
<glyph name="k" format="2">
  <advance width="546" />
  <unicode hex="006B" />
  <outline>
    <contour>
      <point x="107" y="0" type="line" />
      <point x="80" y="0" type="line" />
      <point x="80" y="775" type="line" />
      <point x="107" y="775" type="line" />
    </contour>
    <contour>
      <point x="105" y="203" type="line" />
      <point x="455" y="550" type="line" />
      <point x="492" y="550" type="line" />
      <point x="232" y="296" type="line" />
      <point x="107" y="173" type="line" />
      <point x="95" y="173" type="line" />
    </contour>
    <contour>
      <point x="506" y="0" type="line" />
      <point x="471" y="0" type="line" />
      <point x="218" y="293" type="line" />
      <point x="236" y="310" type="line" />
    </contour>
  </outline>
</glyph>
<glyph name="l" format="2">
  <advance width="277" />
  <unicode hex="006C" />
  <guideline x="195" y="775" angle="95" />
  <outline>
    <contour>
      <point x="262" y="5" type="line" />
      <point x="262" y="5" />
      <point x="243" y="-5" />
      <point x="201" y="-5" type="curve" smooth="yes" />
      <point x="131" y="-5" />
      <point x="80" y="29" />
      <point x="80" y="115" type="curve" smooth="yes" />
      <point x="80" y="775" type="line" />
      <point x="107" y="775" type="line" />
      <point x="107" y="119" type="line" smooth="yes" />
      <point x="107" y="40" />
      <point x="143" y="19" />
      <point x="203" y="19" type="curve" smooth="yes" />
      <point x="243" y="19" />
      <point x="260" y="29" />
      <point x="260" y="29" type="curve" />
    </contour>
  </outline>
</glyph>
<glyph name="m" format="2">
  <advance width="926" />
  <unicode hex="006D" />
  <outline>
    <contour>
      <point x="75" y="550" type="line" />
      <point x="75" y="0" type="line" />
      <point x="102" y="0" type="line" />
      <point x="102" y="350" type="line" />
      <point x="99" y="550" type="line" />
    </contour>
    <contour>
      <point x="310" y="562" type="curve" smooth="yes" />
      <point x="116" y="562" />
      <point x="94" y="351" />
      <point x="94" y="331" type="curve" />
      <point x="102" y="273" type="line" />
      <point x="102" y="376" />
      <point x="148" y="538" />
      <point x="308" y="538" type="curve" smooth="yes" />
      <point x="429" y="538" />
      <point x="453" y="442" />
      <point x="453" y="369" type="curve" smooth="yes" />
      <point x="453" y="0" type="line" />
      <point x="479" y="0" type="line" />
      <point x="479" y="370" type="line" smooth="yes" />
      <point x="479" y="461" />
      <point x="436" y="562" />
    </contour>
    <contour>
      <point x="687" y="562" type="curve" smooth="yes" />
      <point x="493" y="562" />
      <point x="471" y="351" />
      <point x="471" y="331" type="curve" />
      <point x="479" y="273" type="line" />
      <point x="479" y="376" />
      <point x="525" y="538" />
      <point x="685" y="538" type="curve" smooth="yes" />
      <point x="806" y="538" />
      <point x="830" y="442" />
      <point x="830" y="369" type="curve" smooth="yes" />
      <point x="830" y="0" type="line" />
      <point x="856" y="0" type="line" />
      <point x="856" y="370" type="line" smooth="yes" />
      <point x="856" y="461" />
      <point x="813" y="562" />
    </contour>
  </outline>
</glyph>
<glyph name="n" format="2">
  <advance width="599"/>
  <unicode hex="006E"/>
  <outline>
    <contour>
      <point x="94" y="550" type="line"/>
      <point x="97" y="350" type="line"/>
      <point x="97" y="0" type="line"/>
      <point x="70" y="0" type="line"/>
      <point x="70" y="550" type="line"/>
    </contour>
    <contour>
      <point x="333" y="538" type="curve" smooth="yes"/>
      <point x="163" y="538"/>
      <point x="97" y="376"/>
      <point x="97" y="273" type="curve"/>
      <point x="89" y="331" type="line"/>
      <point x="89" y="351"/>
      <point x="131" y="562"/>
      <point x="335" y="562" type="curve" smooth="yes"/>
      <point x="461" y="562"/>
      <point x="534" y="491"/>
      <point x="534" y="360" type="curve" smooth="yes"/>
      <point x="534" y="0" type="line"/>
      <point x="508" y="0" type="line"/>
      <point x="508" y="359" type="line" smooth="yes"/>
      <point x="508" y="462"/>
      <point x="454" y="538"/>
    </contour>
  </outline>
</glyph>
<glyph name="o" format="2">
  <advance width="610" />
  <unicode hex="006F" />
  <outline>
    <contour>
      <point x="305" y="-12" type="curve" smooth="yes" />
      <point x="171" y="-12" />
      <point x="55" y="77" />
      <point x="55" y="275" type="curve" smooth="yes" />
      <point x="55" y="473" />
      <point x="171" y="562" />
      <point x="305" y="562" type="curve" smooth="yes" />
      <point x="439" y="562" />
      <point x="555" y="473" />
      <point x="555" y="275" type="curve" smooth="yes" />
      <point x="555" y="77" />
      <point x="439" y="-12" />
    </contour>
    <contour>
      <point x="528" y="275" type="curve" smooth="yes" />
      <point x="528" y="463" />
      <point x="423" y="538" />
      <point x="305" y="538" type="curve" smooth="yes" />
      <point x="187" y="538" />
      <point x="82" y="463" />
      <point x="82" y="275" type="curve" smooth="yes" />
      <point x="82" y="87" />
      <point x="187" y="12" />
      <point x="305" y="12" type="curve" smooth="yes" />
      <point x="423" y="12" />
      <point x="528" y="87" />
    </contour>
  </outline>
</glyph>
<glyph name="p" format="2">
  <advance width="599" />
  <unicode hex="0070" />
  <outline>
    <contour>
      <point x="80" y="550" type="line" />
      <point x="80" y="-225" type="line" />
      <point x="107" y="-225" type="line" />
      <point x="107" y="155" type="line" />
      <point x="93" y="273" type="line" />
      <point x="108" y="350" type="line" />
      <point x="105" y="550" type="line" />
    </contour>
    <contour>
      <point x="312" y="562" type="curve" smooth="yes" />
      <point x="214" y="562" />
      <point x="88" y="485" />
      <point x="88" y="273" type="curve" smooth="yes" />
      <point x="88" y="65" />
      <point x="214" y="-12" />
      <point x="312" y="-12" type="curve" smooth="yes" />
      <point x="402" y="-12" />
      <point x="544" y="55" />
      <point x="544" y="273" type="curve" smooth="yes" />
      <point x="544" y="497" />
      <point x="402" y="562" />
    </contour>
    <contour>
      <point x="312" y="538" type="curve" smooth="yes" />
      <point x="411" y="538" />
      <point x="520" y="456" />
      <point x="520" y="273" type="curve" smooth="yes" />
      <point x="520" y="98" />
      <point x="411" y="12" />
      <point x="312" y="12" type="curve" smooth="yes" />
      <point x="188" y="12" />
      <point x="102" y="111" />
      <point x="102" y="273" type="curve" smooth="yes" />
      <point x="102" y="435" />
      <point x="190" y="538" />
    </contour>
  </outline>
</glyph>
<glyph name="q" format="2">
  <advance width="599" />
  <unicode hex="0071" />
  <outline>
    <contour>
      <point x="494" y="550" type="line" />
      <point x="491" y="350" type="line" />
      <point x="506" y="273" type="line" />
      <point x="492" y="155" type="line" />
      <point x="492" y="-225" type="line" />
      <point x="519" y="-225" type="line" />
      <point x="519" y="550" type="line" />
    </contour>
    <contour>
      <point x="287" y="562" type="curve" smooth="yes" />
      <point x="197" y="562" />
      <point x="55" y="497" />
      <point x="55" y="273" type="curve" smooth="yes" />
      <point x="55" y="55" />
      <point x="197" y="-12" />
      <point x="287" y="-12" type="curve" smooth="yes" />
      <point x="385" y="-12" />
      <point x="511" y="65" />
      <point x="511" y="273" type="curve" smooth="yes" />
      <point x="511" y="485" />
      <point x="385" y="562" />
    </contour>
    <contour>
      <point x="287" y="538" type="curve" smooth="yes" />
      <point x="409" y="538" />
      <point x="497" y="435" />
      <point x="497" y="273" type="curve" smooth="yes" />
      <point x="497" y="111" />
      <point x="411" y="12" />
      <point x="287" y="12" type="curve" smooth="yes" />
      <point x="188" y="12" />
      <point x="79" y="98" />
      <point x="79" y="273" type="curve" smooth="yes" />
      <point x="79" y="456" />
      <point x="188" y="538" />
    </contour>
  </outline>
</glyph>
<glyph name="r" format="2">
  <advance width="419"/>
  <unicode hex="0072"/>
  <guideline x="367" y="275" angle="85"/>
  <outline>
    <contour>
      <point x="70" y="550" type="line"/>
      <point x="70" y="0" type="line"/>
      <point x="97" y="0" type="line"/>
      <point x="97" y="350" type="line"/>
      <point x="94" y="550" type="line"/>
    </contour>
    <contour>
      <point x="314" y="562" type="curve" smooth="yes"/>
      <point x="144" y="562"/>
      <point x="89" y="353"/>
      <point x="89" y="333" type="curve"/>
      <point x="97" y="275" type="line"/>
      <point x="97" y="378"/>
      <point x="178" y="538"/>
      <point x="309" y="538" type="curve" smooth="yes"/>
      <point x="362" y="538"/>
      <point x="388" y="526"/>
      <point x="389" y="525" type="curve"/>
      <point x="391" y="547" type="line"/>
      <point x="391" y="547" type="line"/>
      <point x="390" y="548"/>
      <point x="362" y="562"/>
    </contour>
  </outline>
</glyph>
<glyph name="s" format="2">
  <advance width="533" />
  <unicode hex="0073" />
  <guideline x="280" y="275" angle="45" />
  <guideline x="280" y="275" angle="40" />
  <guideline x="280" y="275" angle="50" />
  <outline>
    <contour>
      <point x="463" y="494" type="curve" />
      <point x="446" y="474" type="line" />
      <point x="446" y="474" />
      <point x="389" y="538" />
      <point x="279" y="538" type="curve" smooth="yes" />
      <point x="169" y="538" />
      <point x="99" y="488" />
      <point x="99" y="408" type="curve" smooth="yes" />
      <point x="99" y="248" />
      <point x="483" y="329" />
      <point x="483" y="141" type="curve" smooth="yes" />
      <point x="483" y="47" />
      <point x="409" y="-12" />
      <point x="276" y="-12" type="curve" smooth="yes" />
      <point x="114" y="-12" />
      <point x="55" y="87" />
      <point x="55" y="87" type="curve" />
      <point x="75" y="104" type="line" />
      <point x="76" y="103" />
      <point x="139" y="12" />
      <point x="280" y="12" type="curve" smooth="yes" />
      <point x="390" y="12" />
      <point x="456" y="62" />
      <point x="456" y="142" type="curve" smooth="yes" />
      <point x="456" y="300" />
      <point x="72" y="221" />
      <point x="72" y="409" type="curve" smooth="yes" />
      <point x="72" y="499" />
      <point x="147" y="562" />
      <point x="274" y="562" type="curve" smooth="yes" />
      <point x="402" y="562" />
      <point x="463" y="494" />
    </contour>
  </outline>
</glyph>
<glyph name="t" format="2">
  <advance width="459" />
  <unicode hex="0074" />
  <guideline x="348" y="775" angle="95" name="-5deg" />
  <guideline x="5" y="694" angle="0" />
  <guideline x="5" y="670" angle="0" />
  <outline>
    <contour>
      <point x="40" y="550" type="line" />
      <point x="407" y="550" type="line" />
      <point x="407" y="526" type="line" />
      <point x="40" y="526" type="line" />
    </contour>
    <contour>
      <point x="168" y="694" type="line" />
      <point x="168" y="157" type="line" smooth="yes" />
      <point x="168" y="64" />
      <point x="211" y="18" />
      <point x="310" y="18" type="curve" smooth="yes" />
      <point x="378" y="18" />
      <point x="412" y="47" />
      <point x="412" y="47" type="curve" />
      <point x="414" y="23" type="line" />
      <point x="414" y="23" />
      <point x="376" y="-6" />
      <point x="308" y="-6" type="curve" smooth="yes" />
      <point x="190" y="-6" />
      <point x="141" y="59" />
      <point x="141" y="156" type="curve" smooth="yes" />
      <point x="141" y="550" type="line" />
      <point x="144" y="694" type="line" />
    </contour>
  </outline>
</glyph>
<glyph name="u" format="2">
  <advance width="604" />
  <unicode hex="0075" />
  <outline>
    <contour>
      <point x="507" y="550" type="line" />
      <point x="507" y="200" type="line" />
      <point x="510" y="0" type="line" />
      <point x="534" y="0" type="line" />
      <point x="534" y="550" type="line" />
    </contour>
    <contour>
      <point x="70" y="550" type="line" />
      <point x="70" y="190" type="line" smooth="yes" />
      <point x="70" y="59" />
      <point x="143" y="-12" />
      <point x="269" y="-12" type="curve" smooth="yes" />
      <point x="473" y="-12" />
      <point x="515" y="199" />
      <point x="515" y="219" type="curve" />
      <point x="507" y="277" type="line" />
      <point x="507" y="174" />
      <point x="441" y="12" />
      <point x="271" y="12" type="curve" smooth="yes" />
      <point x="150" y="12" />
      <point x="96" y="78" />
      <point x="96" y="191" type="curve" smooth="yes" />
      <point x="96" y="550" type="line" />
    </contour>
  </outline>
</glyph>
<glyph name="v" format="2">
  <advance width="546" />
  <unicode hex="0076" />
  <outline>
    <contour>
      <point x="265" y="0" type="line" />
      <point x="40" y="550" type="line" />
      <point x="66" y="550" type="line" />
      <point x="276" y="33" type="line" />
      <point x="271" y="33" type="line" />
      <point x="478" y="550" type="line" />
      <point x="506" y="550" type="line" />
      <point x="281" y="0" type="line" />
    </contour>
  </outline>
</glyph>
<glyph name="w" format="2">
  <advance width="830" />
  <unicode hex="0077" />
  <outline>
    <contour>
      <point x="436" y="550" type="line" />
      <point x="597" y="33" type="line" />
      <point x="592" y="33" type="line" />
      <point x="758" y="550" type="line" />
      <point x="790" y="550" type="line" />
      <point x="604" y="0" type="line" />
      <point x="584" y="0" type="line" />
      <point x="416" y="534" type="line" />
      <point x="421" y="534" type="line" />
      <point x="255" y="0" type="line" />
      <point x="235" y="0" type="line" />
      <point x="40" y="550" type="line" />
      <point x="66" y="550" type="line" />
      <point x="247" y="33" type="line" />
      <point x="242" y="33" type="line" />
      <point x="400" y="550" type="line" />
    </contour>
  </outline>
</glyph>
<glyph name="x" format="2">
  <advance width="507"/>
  <unicode hex="0078"/>
  <outline>
    <contour>
      <point x="47" y="550" type="line"/>
      <point x="243" y="270" type="line"/>
      <point x="243" y="279" type="line"/>
      <point x="35" y="0" type="line"/>
      <point x="64" y="0" type="line"/>
      <point x="260" y="265" type="line"/>
      <point x="251" y="265" type="line"/>
      <point x="439" y="0" type="line"/>
      <point x="472" y="0" type="line"/>
      <point x="268" y="279" type="line"/>
      <point x="268" y="270" type="line"/>
      <point x="460" y="550" type="line"/>
      <point x="432" y="550" type="line"/>
      <point x="251" y="284" type="line"/>
      <point x="260" y="284" type="line"/>
      <point x="76" y="550" type="line"/>
    </contour>
  </outline>
</glyph>
<glyph name="y" format="2">
  <advance width="546" />
  <unicode hex="0079" />
  <outline>
    <contour>
      <point x="173" y="-225" type="line" />
      <point x="271" y="15" type="line" />
      <point x="271" y="-15" type="line" />
      <point x="40" y="550" type="line" />
      <point x="66" y="550" type="line" />
      <point x="283" y="16" type="line" />
      <point x="271" y="16" type="line" />
      <point x="478" y="550" type="line" />
      <point x="506" y="550" type="line" />
      <point x="201" y="-225" type="line" />
    </contour>
  </outline>
</glyph>
<glyph name="z" format="2">
  <advance width="520" />
  <unicode hex="007A" />
  <outline>
    <contour>
      <point x="50" y="550" type="line" />
      <point x="50" y="526" type="line" />
      <point x="458" y="526" type="line" />
      <point x="458" y="544" type="line" />
      <point x="40" y="21" type="line" />
      <point x="40" y="0" type="line" />
      <point x="480" y="0" type="line" />
      <point x="480" y="24" type="line" />
      <point x="56" y="24" type="line" />
      <point x="56" y="6" type="line" />
      <point x="474" y="529" type="line" />
      <point x="474" y="550" type="line" />
    </contour>
  </outline>
</glyph>
<glyph name="braceleft" format="2">
  <advance width="380" />
  <unicode hex="007B" />
  <guideline x="260" y="307" angle="105" name="l" identifier="fontra-guideline-0" />
  <guideline x="214" y="307" angle="75" name="r" identifier="fontra-guideline-1" />
  <guideline x="181" y="307" angle="105" identifier="fontra-guideline-2" />
  <outline>
    <contour>
      <point x="334" y="753" type="curve" />
      <point x="340" y="777" type="line" />
      <point x="340" y="777" />
      <point x="305" y="793" />
      <point x="247" y="793" type="curve" smooth="yes" />
      <point x="164" y="793" />
      <point x="117" y="743" />
      <point x="117" y="665" type="curve" smooth="yes" />
      <point x="117" y="582" />
      <point x="193" y="461" />
      <point x="193" y="380" type="curve" smooth="yes" />
      <point x="193" y="337" />
      <point x="171" y="323" />
      <point x="116" y="323" type="curve" smooth="yes" />
      <point x="65" y="323" type="line" />
      <point x="65" y="311" type="line" />
      <point x="130" y="311" type="line" />
      <point x="190" y="311" />
      <point x="220" y="329" />
      <point x="220" y="385" type="curve" smooth="yes" />
      <point x="220" y="462" />
      <point x="144" y="572" />
      <point x="144" y="668" type="curve" smooth="yes" />
      <point x="144" y="724" />
      <point x="175" y="769" />
      <point x="254" y="769" type="curve" smooth="yes" />
      <point x="300" y="769" />
      <point x="332" y="754" />
    </contour>
    <contour>
      <point x="334" y="-131" type="curve" />
      <point x="340" y="-155" type="line" />
      <point x="340" y="-155" />
      <point x="305" y="-171" />
      <point x="247" y="-171" type="curve" smooth="yes" />
      <point x="164" y="-171" />
      <point x="117" y="-121" />
      <point x="117" y="-43" type="curve" smooth="yes" />
      <point x="117" y="40" />
      <point x="193" y="161" />
      <point x="193" y="242" type="curve" smooth="yes" />
      <point x="193" y="285" />
      <point x="171" y="299" />
      <point x="116" y="299" type="curve" smooth="yes" />
      <point x="65" y="299" type="line" />
      <point x="65" y="311" type="line" />
      <point x="130" y="311" type="line" />
      <point x="190" y="311" />
      <point x="220" y="293" />
      <point x="220" y="237" type="curve" smooth="yes" />
      <point x="220" y="160" />
      <point x="144" y="50" />
      <point x="144" y="-46" type="curve" smooth="yes" />
      <point x="144" y="-102" />
      <point x="175" y="-147" />
      <point x="254" y="-147" type="curve" smooth="yes" />
      <point x="300" y="-147" />
      <point x="332" y="-132" />
    </contour>
  </outline>
</glyph>
<glyph name="bar" format="2">
  <advance width="330" />
  <unicode hex="007C" />
  <outline>
    <contour>
      <point x="179" y="775" type="line" />
      <point x="179" y="-186" type="line" />
      <point x="152" y="-186" type="line" />
      <point x="152" y="775" type="line" />
    </contour>
  </outline>
</glyph>
<glyph name="multiply" format="2">
  <advance width="506" />
  <unicode hex="00D7" />
  <outline>
    <contour>
      <point x="70" y="172" type="line" />
      <point x="88" y="154" type="line" />
      <point x="432" y="518" type="line" />
      <point x="414" y="536" type="line" />
    </contour>
    <contour>
      <point x="92" y="535" type="line" />
      <point x="74" y="517" type="line" />
      <point x="418" y="154" type="line" />
      <point x="436" y="172" type="line" />
    </contour>
  </outline>
</glyph>
<glyph name="ccedilla" format="2">
  <advance width="555"/>
  <unicode hex="00E7"/>
  <guideline x="150" y="550" angle="90" name="cedilla left"/>
  <guideline x="410" y="550" angle="90" name="right cedilla"/>
  <guideline x="150" y="-225" angle="75" name="left diag"/>
  <guideline x="410" y="-225" angle="105" name="right diag"/>
  <guideline x="280" y="270" angle="90" name="center"/>
  <outline>
    <contour>
      <point x="265" y="-8" type="curve"/>
      <point x="265" y="5" type="line"/>
      <point x="266" y="5"/>
      <point x="421" y="-10"/>
      <point x="421" y="-120" type="curve" smooth="yes"/>
      <point x="421" y="-188"/>
      <point x="355" y="-227"/>
      <point x="280" y="-227" type="curve" smooth="yes"/>
      <point x="200" y="-227"/>
      <point x="158" y="-196"/>
      <point x="158" y="-196" type="curve"/>
      <point x="164" y="-174" type="line"/>
      <point x="165" y="-174"/>
      <point x="206" y="-204"/>
      <point x="280" y="-204" type="curve" smooth="yes"/>
      <point x="349" y="-204"/>
      <point x="394" y="-175"/>
      <point x="394" y="-117" type="curve" smooth="yes"/>
      <point x="394" y="-21"/>
      <point x="266" y="-8"/>
    </contour>
    <component base="c"/>
  </outline>
</glyph>
<glyph name="minus" format="2">
  <advance width="570"/>
  <unicode hex="2212"/>
  <outline>
    <contour>
      <point x="70" y="359" type="line"/>
      <point x="500" y="359" type="line"/>
      <point x="500" y="335" type="line"/>
      <point x="70" y="335" type="line"/>
    </contour>
  </outline>
</glyph>
